<svg xmlns="http://www.w3.org/2000/svg" width="500" height="500" viewBox="0 0 500 500">
<g>
<path d="M 39.00,446.50 L 39.00,393.00 L 50.00,393.00 L 61.00,393.00 L 61.00,397.00 L 61.00,398.08 L 61.16,399.56 L 61.27,400.19 L 61.65,400.79 L 61.87,400.97 L 62.47,400.68 L 63.62,399.23 L 63.77,398.99 L 64.48,398.31 L 64.88,397.95 L 65.98,397.12 L 70.11,394.51 L 71.34,393.84 L 73.29,392.92 L 74.24,392.51 L 76.15,392.03 L 77.16,391.83 L 79.71,391.65 L 80.42,391.61 L 82.08,391.58 L 85.00,391.57 L 86.04,391.57 L 87.84,391.60 L 88.70,391.61 L 90.20,391.67 L 91.64,391.75 L 93.95,392.08 L 95.06,392.28 L 97.18,392.95 L 100.80,394.45 L 102.74,395.33 L 106.33,397.68 L 108.08,398.94 L 111.19,401.95 L 112.68,403.53 L 115.19,407.06 L 118.12,412.80 L 118.51,413.81 L 119.16,416.14 L 119.45,417.35 L 119.90,419.99 L 120.29,422.68 L 120.49,428.50 L 120.49,431.41 L 119.90,437.01 L 119.70,438.36 L 119.16,440.86 L 118.12,444.20 L 117.34,446.19 L 115.19,449.92 L 114.03,451.74 L 111.20,455.03 L 109.72,456.61 L 106.34,459.32 L 100.80,462.59 L 99.41,463.23 L 97.16,464.13 L 96.08,464.52 L 93.96,465.01 L 92.86,465.21 L 90.23,465.40 L 89.51,465.44 L 87.86,465.47 L 85.00,465.49 L 83.92,465.49 L 82.08,465.47 L 81.20,465.45 L 79.72,465.40 L 78.30,465.33 L 76.15,465.01 L 75.14,464.80 L 73.29,464.11 L 70.11,462.50 L 68.63,461.69 L 65.98,459.89 L 65.40,459.46 L 64.48,458.69 L 63.62,457.77 L 63.32,457.28 L 62.62,456.52 L 61.76,456.00 L 61.71,456.00 L 61.61,456.45 L 61.56,456.74 L 61.46,457.74 L 61.42,458.29 L 61.34,459.77 L 61.30,460.56 L 61.22,462.46 L 61.19,463.46 L 61.13,465.72 L 61.10,466.89 L 61.06,469.46 L 61.00,478.00 L 61.00,500.00 L 50.00,500.00 L 39.00,500.00 L 39.00,446.50 M 89.00,446.09 L 89.60,445.80 L 90.76,444.96 L 91.34,444.50 L 92.43,443.35 L 93.50,442.15 L 95.30,439.07 L 96.12,437.46 L 97.27,433.90 L 98.00,428.50 L 98.00,426.69 L 97.27,423.02 L 96.79,421.22 L 95.27,417.84 L 94.42,416.23 L 92.30,413.53 L 91.74,412.92 L 90.55,411.88 L 88.66,410.66 L 87.48,410.06 L 84.55,409.28 L 83.04,408.96 L 79.82,408.76 L 78.22,408.73 L 75.16,409.12 L 71.28,410.36 L 70.37,410.83 L 68.71,412.04 L 67.90,412.69 L 66.47,414.23 L 65.79,415.03 L 64.61,416.84 L 64.06,417.77 L 63.15,419.78 L 62.74,420.81 L 62.13,422.99 L 61.86,424.09 L 61.57,426.38 L 61.47,427.53 L 61.51,429.87 L 61.99,433.38 L 62.34,435.01 L 63.45,437.91 L 64.06,439.30 L 65.66,441.70 L 66.51,442.83 L 68.52,444.69 L 69.57,445.55 L 71.93,446.85 L 73.15,447.42 L 75.79,448.11 L 77.14,448.38 L 79.99,448.44 L 81.43,448.39 L 84.43,447.78 L 85.93,447.39 M 147.50,465.30 L 146.43,465.16 L 144.12,464.70 L 142.94,464.44 L 140.53,463.79 L 138.11,463.11 L 133.54,461.41 L 132.46,460.97 L 130.54,460.09 L 129.64,459.65 L 128.15,458.80 L 127.48,458.38 L 126.57,457.62 L 126.00,456.62 L 126.00,456.49 L 126.31,455.70 L 126.52,455.24 L 127.17,453.94 L 127.53,453.25 L 128.43,451.60 L 129.98,448.92 L 133.96,442.22 L 139.94,444.63 L 141.79,445.38 L 145.64,446.52 L 147.58,447.04 L 151.42,447.72 L 153.32,448.00 L 156.95,448.25 L 158.71,448.32 L 161.92,448.14 L 163.44,448.00 L 166.01,447.42 L 167.20,447.08 L 168.92,446.12 L 169.29,445.85 L 169.84,445.26 L 170.07,444.95 L 170.34,444.26 L 170.43,443.91 L 170.38,443.14 L 169.94,441.88 L 169.61,441.26 L 168.74,440.27 L 168.25,439.81 L 166.87,439.05 L 166.09,438.68 L 163.93,438.02 L 163.32,437.85 L 161.92,437.52 L 159.50,437.00 L 157.55,436.60 L 153.96,435.74 L 152.22,435.30 L 149.03,434.35 L 147.49,433.87 L 144.69,432.82 L 143.33,432.29 L 140.91,431.15 L 139.74,430.56 L 137.66,429.31 L 136.67,428.67 L 134.94,427.30 L 134.12,426.60 L 132.72,425.11 L 130.97,422.72 L 130.67,422.23 L 130.17,420.97 L 129.94,420.30 L 129.58,418.75 L 129.25,417.15 L 128.99,413.53 L 128.94,411.72 L 129.26,408.27 L 129.38,407.46 L 129.72,406.01 L 130.41,404.20 L 130.93,403.20 L 132.39,401.25 L 133.18,400.29 L 135.09,398.50 L 136.09,397.63 L 138.36,396.07 L 142.05,394.09 L 143.28,393.55 L 146.18,392.70 L 147.69,392.32 L 151.06,391.78 L 152.78,391.55 L 156.47,391.31 L 158.33,391.23 L 162.19,391.30 L 164.13,391.37 L 168.00,391.72 L 169.93,391.94 L 173.69,392.58 L 175.54,392.94 L 179.02,393.86 L 183.78,395.57 L 189.83,398.19 L 186.27,404.34 L 185.61,405.48 L 184.54,407.32 L 184.04,408.18 L 183.23,409.52 L 182.84,410.13 L 182.20,411.02 L 181.89,411.42 L 181.33,411.93 L 181.06,412.15 L 180.52,412.35 L 180.24,412.41 L 179.63,412.35 L 179.31,412.29 L 178.55,412.04 L 177.16,411.51 L 176.66,411.32 L 175.19,410.89 L 174.39,410.67 L 172.51,410.22 L 166.46,409.08 L 164.33,408.77 L 160.67,408.59 L 159.80,408.58 L 158.24,408.67 L 157.48,408.73 L 156.14,408.97 L 155.50,409.10 L 154.39,409.47 L 153.87,409.68 L 153.02,410.19 L 152.62,410.46 L 152.02,411.10 L 151.43,412.22 L 151.19,412.97 L 151.45,414.30 L 151.70,414.95 L 152.95,416.09 L 153.71,416.64 L 156.00,417.62 L 156.64,417.85 L 158.11,418.29 L 160.63,418.91 L 163.69,419.58 L 169.05,420.97 L 171.60,421.68 L 176.01,423.17 L 178.10,423.94 L 181.63,425.59 L 183.28,426.44 L 185.99,428.30 L 187.25,429.26 L 189.21,431.39 L 190.10,432.49 L 191.38,434.92 L 191.95,436.19 L 192.61,438.99 L 193.00,443.66 L 193.00,445.42 L 192.40,448.67 L 192.01,450.25 L 190.64,453.12 L 189.87,454.50 L 187.79,456.96 L 186.66,458.14 L 183.89,460.17 L 182.42,461.13 L 179.00,462.70 L 177.22,463.43 L 173.20,464.52 L 171.11,465.00 L 166.52,465.58 L 159.04,465.85 L 156.69,465.81 L 152.13,465.63 L 151.08,465.58 L 149.34,465.47 L 148.55,465.41 M 376.49,465.04 L 375.09,464.75 L 372.34,463.91 L 370.97,463.45 L 368.29,462.33 L 366.97,461.73 L 364.42,460.34 L 363.16,459.62 L 360.79,458.01 L 359.63,457.18 L 357.47,455.38 L 356.43,454.46 L 354.54,452.50 L 353.63,451.50 L 352.06,449.42 L 350.09,446.18 L 349.81,445.63 L 349.21,444.06 L 348.90,443.22 L 348.30,441.25 L 346.86,435.01 L 346.52,432.93 L 346.32,428.64 L 346.30,426.49 L 346.72,422.23 L 347.00,420.13 L 348.01,416.14 L 350.16,410.69 L 350.98,409.08 L 353.36,405.87 L 354.65,404.30 L 357.77,401.34 L 359.40,399.91 L 363.01,397.43 L 368.68,394.47 L 370.23,393.84 L 372.72,392.96 L 373.93,392.58 L 376.40,392.12 L 377.06,392.02 L 378.53,391.89 L 379.29,391.83 L 381.06,391.75 L 381.99,391.71 L 384.16,391.68 L 388.00,391.66 L 389.34,391.66 L 391.66,391.67 L 392.76,391.68 L 394.67,391.73 L 395.58,391.76 L 397.16,391.85 L 397.92,391.90 L 399.25,392.04 L 400.54,392.20 L 402.71,392.73 L 406.00,393.90 L 407.50,394.51 L 410.40,395.99 L 411.81,396.75 L 414.25,398.32 L 415.37,399.10 L 416.97,400.50 L 417.30,400.83 L 417.73,401.42 L 418.00,402.15 L 418.00,402.31 L 417.60,403.06 L 417.35,403.49 L 416.55,404.67 L 416.11,405.30 L 415.04,406.73 L 414.48,407.47 L 413.27,408.99 L 412.66,409.75 L 411.46,411.19 L 410.86,411.89 L 409.79,413.09 L 409.28,413.64 L 408.48,414.42 L 407.73,414.94 L 407.62,414.95 L 407.12,414.77 L 406.83,414.65 L 406.04,414.26 L 403.05,412.53 L 402.47,412.17 L 401.10,411.49 L 400.38,411.17 L 398.78,410.58 L 397.14,410.02 L 393.52,409.23 L 391.70,408.89 L 388.17,408.63 L 387.33,408.60 L 385.76,408.67 L 383.67,408.96 L 382.47,409.23 L 380.29,409.99 L 379.24,410.40 L 377.34,411.44 L 376.43,411.99 L 374.83,413.30 L 374.06,413.99 L 372.75,415.57 L 372.13,416.40 L 371.12,418.24 L 370.65,419.19 L 369.95,421.29 L 369.63,422.37 L 369.24,424.71 L 369.00,428.50 L 369.00,429.84 L 369.25,432.35 L 369.42,433.58 L 369.99,435.84 L 370.32,436.94 L 371.22,438.93 L 371.70,439.90 L 372.90,441.63 L 373.54,442.45 L 375.05,443.90 L 375.83,444.58 L 377.63,445.73 L 378.56,446.26 L 380.63,447.11 L 384.05,448.01 L 385.43,448.26 L 388.70,448.29 L 390.38,448.23 L 393.90,447.70 L 395.64,447.38 L 398.92,446.39 L 403.04,444.48 L 404.12,443.80 L 406.03,442.74 L 406.46,442.53 L 407.12,442.23 L 407.73,442.06 L 407.86,442.07 L 408.47,442.58 L 408.82,442.90 L 409.78,443.91 L 410.28,444.46 L 411.44,445.80 L 412.03,446.49 L 413.26,447.99 L 413.87,448.75 L 415.03,450.24 L 415.59,450.97 L 416.54,452.29 L 416.98,452.91 L 417.60,453.89 L 418.00,454.79 L 418.00,454.99 L 417.71,455.51 L 417.52,455.79 L 416.90,456.44 L 416.21,457.12 L 414.07,458.69 L 412.90,459.48 L 410.16,461.06 L 405.85,463.11 L 405.10,463.41 L 403.17,463.94 L 402.14,464.20 L 399.76,464.64 L 397.29,465.05 L 391.63,465.55 L 388.78,465.74 L 383.27,465.73 L 381.96,465.69 L 379.57,465.50 L 378.43,465.39 M 0.00,414.50 L 0.00,365.00 L 11.50,365.00 L 23.00,365.00 L 23.00,414.50 L 23.00,464.00 L 11.50,464.00 L 0.00,464.00 L 0.00,414.50 M 217.00,460.28 L 216.89,459.93 L 216.47,458.62 L 216.23,457.88 L 215.59,455.89 L 215.24,454.82 L 214.40,452.25 L 213.96,450.90 L 212.96,447.85 L 212.45,446.28 L 211.33,442.86 L 210.76,441.12 L 209.56,437.44 L 208.33,433.72 L 205.78,425.94 L 204.50,422.07 L 202.05,414.63 L 201.46,412.83 L 200.34,409.44 L 199.79,407.79 L 198.80,404.77 L 198.32,403.32 L 197.48,400.79 L 197.08,399.60 L 196.43,397.66 L 196.14,396.77 L 195.72,395.52 L 195.38,394.55 L 195.25,394.22 L 195.45,393.74 L 195.55,393.64 L 195.93,393.47 L 196.16,393.39 L 196.82,393.27 L 197.19,393.22 L 198.18,393.14 L 198.71,393.10 L 200.08,393.05 L 200.81,393.03 L 202.60,393.01 L 205.82,393.00 L 216.84,393.00 L 217.86,396.25 L 217.93,396.47 L 218.16,397.25 L 218.29,397.69 L 218.63,398.85 L 218.81,399.48 L 219.23,400.98 L 219.46,401.76 L 219.96,403.54 L 220.47,405.37 L 221.66,409.64 L 223.56,416.50 L 224.20,418.84 L 225.43,423.16 L 226.02,425.23 L 227.06,428.73 L 227.31,429.53 L 227.74,430.92 L 227.94,431.57 L 228.29,432.62 L 228.44,433.09 L 228.69,433.75 L 228.92,434.25 L 228.96,434.30 L 229.19,433.97 L 229.32,433.75 L 229.69,432.90 L 229.90,432.42 L 230.41,431.11 L 230.68,430.40 L 231.30,428.68 L 231.63,427.77 L 232.35,425.70 L 232.72,424.62 L 233.51,422.24 L 236.09,414.25 L 242.58,393.50 L 250.72,393.21 L 258.86,392.92 L 264.97,412.21 L 265.42,413.65 L 266.25,416.26 L 266.66,417.53 L 267.39,419.83 L 267.74,420.94 L 268.38,422.93 L 268.69,423.89 L 269.24,425.60 L 269.51,426.41 L 269.98,427.86 L 270.21,428.55 L 270.62,429.74 L 271.00,430.88 L 271.60,432.49 L 271.87,433.20 L 272.28,434.06 L 272.47,434.42 L 272.75,434.69 L 272.87,434.77 L 273.08,434.59 L 273.37,434.00 L 273.41,433.88 L 273.57,433.41 L 273.66,433.13 L 273.89,432.36 L 274.14,431.53 L 274.84,429.13 L 275.21,427.83 L 276.09,424.73 L 276.55,423.11 L 277.54,419.58 L 278.53,416.00 L 280.52,408.74 L 280.99,407.02 L 281.82,403.90 L 282.84,400.00 L 284.50,393.50 L 295.69,393.22 L 306.88,392.94 L 302.61,405.72 L 302.32,406.60 L 301.60,408.75 L 301.23,409.88 L 300.37,412.48 L 299.93,413.82 L 298.97,416.75 L 298.47,418.25 L 297.43,421.43 L 296.38,424.65 L 294.17,431.41 L 290.98,441.25 L 283.61,464.00 L 273.49,464.00 L 263.36,464.00 L 257.50,445.00 L 256.69,442.39 L 255.17,437.62 L 254.81,436.49 L 254.12,434.40 L 253.79,433.38 L 253.18,431.58 L 252.88,430.72 L 252.36,429.26 L 252.12,428.57 L 251.72,427.50 L 251.53,427.02 L 251.26,426.39 L 251.01,426.00 L 250.97,426.00 L 250.76,426.38 L 250.64,426.63 L 250.29,427.48 L 250.10,427.96 L 249.63,429.21 L 249.38,429.89 L 248.81,431.51 L 248.51,432.36 L 247.84,434.29 L 247.50,435.28 L 246.77,437.47 L 244.40,444.75 L 238.41,463.50 L 228.30,463.78 L 218.18,464.07 L 217.00,460.28 M 313.00,428.50 L 313.00,393.00 L 324.50,393.00 L 336.00,393.00 L 336.00,428.50 L 336.00,464.00 L 324.50,464.00 L 313.00,464.00 L 313.00,428.50 M 426.00,412.00 L 426.00,360.00 L 437.50,360.00 L 449.00,360.00 L 449.00,379.67 L 449.00,399.35 L 451.25,397.29 L 452.49,396.16 L 454.87,394.48 L 456.08,393.73 L 458.70,392.72 L 460.08,392.29 L 463.37,391.82 L 464.25,391.73 L 466.21,391.63 L 469.50,391.58 L 471.27,391.59 L 474.56,391.83 L 476.17,391.99 L 479.12,392.55 L 480.56,392.87 L 483.20,393.75 L 484.48,394.23 L 486.82,395.44 L 487.96,396.08 L 490.01,397.63 L 491.00,398.45 L 492.78,400.35 L 493.64,401.34 L 495.17,403.59 L 497.18,407.38 L 497.73,408.60 L 498.48,410.82 L 498.64,411.42 L 498.90,412.84 L 499.02,413.60 L 499.21,415.48 L 499.30,416.49 L 499.43,419.03 L 499.49,420.40 L 499.59,423.80 L 499.61,424.72 L 499.65,426.75 L 499.67,427.79 L 499.70,430.11 L 499.72,431.30 L 499.76,433.93 L 499.81,438.25 L 500.12,464.00 L 489.14,464.00 L 478.16,464.00 L 477.83,441.25 L 477.81,439.67 L 477.76,436.76 L 477.73,435.35 L 477.67,432.78 L 477.64,431.53 L 477.57,429.27 L 477.53,428.17 L 477.43,426.19 L 477.33,424.27 L 477.05,421.19 L 476.89,419.76 L 476.46,417.51 L 476.22,416.47 L 475.60,414.86 L 475.26,414.12 L 474.40,412.98 L 473.94,412.44 L 472.80,411.56 L 470.73,410.34 L 469.72,409.81 L 467.11,409.16 L 465.75,408.89 L 462.83,408.77 L 461.39,408.78 L 458.71,409.18 L 458.08,409.32 L 456.95,409.69 L 455.52,410.39 L 454.84,410.84 L 453.70,411.73 L 453.16,412.19 L 452.28,413.25 L 451.87,413.82 L 451.21,415.22 L 450.91,415.98 L 450.44,417.91 L 450.22,418.95 L 449.90,421.58 L 449.76,423.00 L 449.55,426.52 L 449.50,427.46 L 449.42,429.54 L 449.39,430.62 L 449.32,432.98 L 449.29,434.20 L 449.24,436.87 L 449.17,441.25 L 448.84,464.00 L 437.42,464.00 L 426.00,464.00 L 426.00,412.00 M 319.39,383.02 L 318.70,382.74 L 317.48,381.93 L 316.89,381.49 L 315.86,380.38 L 315.38,379.80 L 314.58,378.47 L 314.21,377.78 L 313.66,376.27 L 313.42,375.51 L 313.13,373.90 L 313.02,373.08 L 313.02,371.42 L 313.05,370.60 L 313.35,368.95 L 314.15,366.56 L 314.46,365.90 L 315.28,364.71 L 315.72,364.14 L 316.78,363.16 L 317.33,362.70 L 318.58,361.94 L 319.22,361.58 L 320.61,361.06 L 321.32,360.83 L 322.79,360.56 L 323.54,360.46 L 325.05,360.47 L 325.81,360.50 L 327.31,360.79 L 329.50,361.57 L 330.58,362.08 L 332.34,363.44 L 333.15,364.18 L 334.37,365.98 L 334.91,366.94 L 335.59,369.19 L 336.00,373.05 L 336.00,373.90 L 335.86,375.27 L 335.76,375.92 L 335.34,377.05 L 335.09,377.61 L 334.30,378.73 L 332.60,380.60 L 331.92,381.28 L 330.75,382.28 L 330.18,382.72 L 329.11,383.31 L 328.57,383.56 L 327.40,383.82 L 325.35,383.94 L 324.29,383.92 L 322.01,383.64 L 321.47,383.56 L 320.51,383.36 L 320.06,383.25 M 191.75,377.34 L 190.72,376.91 L 189.10,376.03 L 188.76,375.83 L 188.30,375.47 L 188.00,375.07 L 188.00,374.97 L 188.20,374.60 L 188.33,374.40 L 188.74,373.86 L 190.52,371.98 L 191.09,371.45 L 191.97,370.74 L 192.39,370.45 L 193.17,370.19 L 193.57,370.11 L 194.50,370.24 L 196.34,370.81 L 197.24,371.13 L 198.91,371.56 L 199.72,371.74 L 201.20,371.88 L 201.92,371.91 L 203.20,371.77 L 203.81,371.66 L 204.87,371.24 L 205.38,371.00 L 206.21,370.31 L 206.60,369.93 L 207.19,368.97 L 207.46,368.46 L 207.79,367.25 L 208.00,365.15 L 208.00,364.35 L 207.96,363.33 L 207.92,362.91 L 207.68,362.57 L 207.52,362.47 L 206.93,362.70 L 205.48,363.60 L 204.59,364.19 L 202.49,364.75 L 201.93,364.84 L 200.64,364.89 L 198.44,364.75 L 197.37,364.63 L 195.48,364.18 L 194.58,363.92 L 193.03,363.18 L 192.29,362.76 L 191.05,361.67 L 190.46,361.08 L 189.50,359.60 L 189.05,358.81 L 188.36,356.91 L 188.04,355.91 L 187.58,353.55 L 187.38,352.30 L 187.14,349.44 L 187.00,344.53 L 187.00,335.00 L 192.00,335.00 L 197.00,335.00 L 197.00,344.94 L 197.00,346.09 L 197.01,348.00 L 197.02,348.91 L 197.06,350.40 L 197.08,351.09 L 197.16,352.22 L 197.21,352.75 L 197.35,353.58 L 197.50,354.36 L 198.01,355.33 L 199.22,356.44 L 199.96,356.96 L 201.18,357.58 L 201.77,357.82 L 202.81,357.90 L 203.32,357.86 L 204.34,357.37 L 206.00,356.00 L 206.43,355.57 L 207.04,354.63 L 207.31,354.11 L 207.64,352.67 L 207.72,352.26 L 207.82,351.27 L 207.87,350.75 L 207.93,349.50 L 207.96,348.84 L 207.98,347.27 L 208.00,344.50 L 208.00,335.00 L 213.00,335.00 L 218.00,335.00 L 217.98,351.25 L 217.97,353.65 L 217.90,357.78 L 217.85,359.74 L 217.67,363.08 L 217.56,364.66 L 217.23,367.32 L 217.04,368.57 L 216.55,370.62 L 216.28,371.59 L 215.58,373.15 L 215.21,373.88 L 214.29,375.05 L 213.80,375.59 L 212.63,376.46 L 210.56,377.54 L 210.00,377.77 L 208.65,378.15 L 207.95,378.33 L 206.39,378.58 L 204.79,378.81 L 201.26,378.89 L 199.49,378.87 L 196.07,378.48 L 195.26,378.35 L 193.75,378.00 L 193.02,377.81 M 113.46,363.12 L 112.43,362.65 L 110.59,361.55 L 109.70,360.96 L 108.13,359.63 L 107.38,358.93 L 106.09,357.37 L 105.48,356.56 L 104.47,354.77 L 104.00,353.86 L 103.27,351.86 L 102.94,350.83 L 102.50,348.62 L 102.32,347.49 L 102.17,345.08 L 102.27,341.24 L 102.39,339.69 L 102.94,336.87 L 103.26,335.51 L 104.20,333.08 L 104.72,331.91 L 106.06,329.86 L 106.77,328.88 L 108.50,327.22 L 109.41,326.43 L 111.52,325.16 L 112.62,324.57 L 115.11,323.68 L 116.41,323.29 L 119.29,322.80 L 124.03,322.50 L 125.90,322.50 L 129.68,322.93 L 131.53,323.20 L 134.82,324.04 L 135.58,324.27 L 136.92,324.77 L 137.55,325.03 L 138.56,325.57 L 139.01,325.84 L 139.62,326.41 L 140.00,327.25 L 140.00,327.38 L 139.84,327.84 L 139.73,328.10 L 139.39,328.77 L 137.94,331.09 L 137.44,331.79 L 136.72,332.69 L 136.38,333.06 L 135.76,333.38 L 135.44,333.47 L 134.65,333.27 L 132.99,332.49 L 132.55,332.27 L 131.39,331.90 L 130.77,331.73 L 129.33,331.46 L 127.83,331.22 L 124.49,331.07 L 122.84,331.05 L 119.89,331.34 L 119.22,331.44 L 118.13,331.72 L 116.95,332.28 L 116.12,332.94 L 114.78,334.43 L 114.16,335.22 L 113.23,336.98 L 112.82,337.89 L 112.31,339.92 L 112.00,343.27 L 112.00,344.71 L 112.35,347.25 L 112.58,348.47 L 113.38,350.58 L 113.83,351.58 L 115.04,353.23 L 115.70,353.99 L 117.31,355.17 L 118.16,355.70 L 120.13,356.39 L 121.16,356.67 L 123.47,356.85 L 124.67,356.88 L 127.29,356.54 L 131.56,355.43 L 132.83,355.00 L 134.90,354.41 L 135.34,354.30 L 135.97,354.18 L 136.43,354.18 L 137.37,355.46 L 138.92,357.94 L 139.25,358.50 L 139.71,359.41 L 140.00,360.27 L 140.00,360.39 L 139.66,360.74 L 139.45,360.94 L 138.75,361.42 L 135.75,363.03 L 135.04,363.35 L 133.39,363.87 L 132.53,364.12 L 130.66,364.48 L 128.73,364.81 L 124.56,364.99 L 122.48,365.00 L 118.49,364.54 L 117.54,364.38 L 115.78,363.95 L 114.94,363.71 M 169.38,363.57 L 168.40,363.14 L 166.88,361.82 L 166.19,361.06 L 165.22,358.96 L 165.00,358.37 L 164.67,357.03 L 164.51,356.32 L 164.29,354.72 L 164.19,353.89 L 164.07,352.01 L 164.00,348.85 L 164.00,348.02 L 163.99,346.65 L 163.99,346.01 L 163.95,344.98 L 163.93,344.50 L 163.85,343.76 L 163.80,343.43 L 163.66,342.94 L 163.50,342.49 L 162.91,342.14 L 161.50,342.00 L 160.95,342.00 L 160.19,341.88 L 159.85,341.80 L 159.43,341.40 L 159.25,341.15 L 159.08,340.34 L 159.00,338.50 L 159.00,337.73 L 159.08,336.66 L 159.15,336.19 L 159.43,335.60 L 159.60,335.35 L 160.19,335.12 L 161.50,335.00 L 162.06,335.00 L 162.84,334.88 L 163.18,334.79 L 163.59,334.35 L 163.77,334.08 L 163.93,333.14 L 164.00,331.00 L 164.00,327.00 L 169.00,327.00 L 174.00,327.00 L 174.00,331.00 L 174.00,335.00 L 178.00,335.00 L 178.98,335.00 L 180.27,335.07 L 180.83,335.13 L 181.46,335.47 L 181.72,335.69 L 181.92,336.51 L 182.00,338.50 L 182.00,339.35 L 181.92,340.49 L 181.85,340.98 L 181.46,341.53 L 181.21,341.76 L 180.27,341.93 L 178.00,342.00 L 174.00,342.00 L 174.00,348.88 L 174.00,349.81 L 174.05,351.41 L 174.09,352.18 L 174.23,353.47 L 174.31,354.08 L 174.55,355.08 L 174.68,355.55 L 175.03,356.28 L 175.22,356.62 L 175.69,357.11 L 175.95,357.33 L 176.56,357.61 L 179.01,357.76 L 179.36,357.72 L 180.04,357.88 L 180.37,357.99 L 180.98,358.41 L 181.56,358.87 L 182.37,360.26 L 182.70,360.98 L 182.80,362.44 L 182.77,362.79 L 182.53,363.39 L 181.87,364.10 L 181.62,364.26 L 180.89,364.51 L 180.50,364.63 L 179.55,364.78 L 178.56,364.91 L 176.18,364.90 L 174.97,364.85 L 172.54,364.48 L 171.36,364.26 M 247.42,363.17 L 245.83,362.42 L 243.41,360.80 L 242.32,359.96 L 240.82,357.97 L 240.16,356.91 L 239.42,354.32 L 239.27,353.62 L 239.10,352.08 L 239.00,349.50 L 239.00,348.30 L 239.10,346.37 L 239.17,345.47 L 239.44,344.02 L 239.60,343.34 L 240.09,342.19 L 241.09,340.61 L 241.73,339.80 L 243.24,338.39 L 244.03,337.73 L 245.79,336.62 L 246.70,336.10 L 248.67,335.30 L 249.67,334.94 L 251.78,334.46 L 252.85,334.26 L 255.04,334.10 L 256.14,334.07 L 258.35,334.26 L 259.46,334.39 L 261.64,334.93 L 264.81,336.15 L 265.67,336.57 L 267.05,337.40 L 267.69,337.83 L 268.73,338.79 L 269.22,339.29 L 270.06,340.52 L 271.23,342.80 L 271.64,343.72 L 272.22,345.55 L 272.47,346.47 L 272.72,348.26 L 272.81,349.15 L 272.74,350.89 L 272.67,351.75 L 272.29,353.43 L 272.06,354.26 L 271.37,355.86 L 270.98,356.64 L 269.98,358.15 L 269.44,358.89 L 268.14,360.30 L 265.84,362.27 L 265.36,362.63 L 264.17,363.22 L 263.53,363.50 L 262.08,363.95 L 260.57,364.36 L 257.13,364.69 L 255.38,364.78 L 251.93,364.44 L 251.10,364.32 L 249.53,363.94 L 248.77,363.72 M 260.37,355.93 L 260.90,355.51 L 261.67,354.71 L 262.02,354.31 L 262.48,353.40 L 262.68,352.92 L 262.89,351.75 L 263.00,349.50 L 263.00,348.62 L 262.89,347.25 L 262.81,346.61 L 262.48,345.60 L 262.28,345.12 L 261.67,344.29 L 260.37,343.07 L 259.49,342.39 L 257.76,341.55 L 256.91,341.22 L 255.22,341.11 L 254.39,341.14 L 252.78,341.74 L 250.45,343.45 L 249.55,344.36 L 248.47,346.33 L 248.04,347.33 L 247.82,349.35 L 247.80,350.35 L 248.29,352.25 L 248.61,353.17 L 249.68,354.78 L 250.28,355.53 L 251.80,356.66 L 252.60,357.16 L 254.42,357.66 L 255.35,357.81 L 257.34,357.50 L 258.34,357.22 M 145.00,349.50 L 145.00,335.00 L 150.00,335.00 L 155.00,335.00 L 155.00,349.50 L 155.00,364.00 L 150.00,364.00 L 145.00,364.00 L 145.00,349.50 M 280.00,353.00 L 280.00,342.00 L 277.50,342.00 L 276.95,342.00 L 276.19,341.88 L 275.85,341.80 L 275.43,341.40 L 275.25,341.15 L 275.08,340.34 L 275.00,338.50 L 275.00,337.74 L 275.08,336.68 L 275.15,336.21 L 275.42,335.62 L 275.59,335.37 L 276.14,335.12 L 277.39,335.00 L 277.90,335.00 L 278.65,334.84 L 278.99,334.72 L 279.47,334.21 L 279.69,333.88 L 280.01,332.84 L 280.45,330.48 L 280.64,329.24 L 281.60,326.52 L 281.86,325.87 L 282.46,324.71 L 283.40,323.32 L 283.89,322.75 L 284.79,321.94 L 285.25,321.59 L 286.33,321.13 L 286.92,320.94 L 288.50,320.74 L 291.76,320.60 L 292.60,320.59 L 294.18,320.63 L 294.94,320.65 L 296.26,320.74 L 296.88,320.80 L 297.79,320.94 L 298.53,321.20 L 298.62,321.29 L 298.72,321.68 L 298.75,321.91 L 298.73,322.50 L 298.26,324.69 L 298.08,325.22 L 297.70,326.01 L 297.50,326.36 L 297.04,326.82 L 296.79,327.02 L 296.20,327.19 L 295.10,327.18 L 294.33,327.07 L 293.01,327.28 L 292.39,327.46 L 291.40,328.20 L 290.95,328.63 L 290.37,329.84 L 290.00,332.12 L 290.00,332.80 L 290.10,333.71 L 290.18,334.11 L 290.60,334.57 L 290.87,334.76 L 291.82,334.93 L 294.06,335.00 L 295.06,335.00 L 296.37,335.06 L 296.93,335.12 L 297.55,335.43 L 297.79,335.64 L 297.92,336.40 L 297.81,338.25 L 297.74,338.99 L 297.54,340.02 L 297.41,340.47 L 296.96,341.04 L 296.68,341.28 L 295.79,341.55 L 293.75,341.81 L 290.00,342.12 L 290.00,353.06 L 290.00,364.00 L 285.00,364.00 L 280.00,364.00 L 280.00,353.00 M 146.20,329.80 L 145.85,329.45 L 145.38,328.61 L 145.19,328.17 L 145.03,327.23 L 144.94,326.27 L 145.52,324.34 L 145.72,323.88 L 146.28,323.04 L 146.58,322.64 L 147.31,321.98 L 147.69,321.67 L 148.57,321.26 L 150.01,321.00 L 150.49,321.00 L 151.60,321.58 L 152.16,321.94 L 153.23,323.01 L 153.73,323.58 L 154.49,324.85 L 155.00,326.65 L 155.00,327.09 L 154.73,327.89 L 154.55,328.28 L 153.98,328.97 L 153.36,329.63 L 151.56,330.49 L 150.62,330.83 L 148.65,330.88 L 148.18,330.83 L 147.31,330.54 L 146.90,330.37 M 104.24,244.28 L 104.50,195.56 L 122.51,187.53 L 124.98,186.43 L 130.01,184.19 L 132.49,183.08 L 137.13,181.01 L 138.24,180.52 L 140.30,179.60 L 141.29,179.16 L 143.07,178.37 L 143.91,177.99 L 145.34,177.36 L 147.01,176.62 L 147.45,176.42 L 148.97,175.75 L 149.83,175.37 L 152.08,174.37 L 153.29,173.83 L 156.17,172.55 L 157.68,171.88 L 161.09,170.36 L 162.85,169.58 L 166.68,167.88 L 168.63,167.01 L 172.77,165.17 L 185.84,159.37 L 188.06,158.38 L 192.40,156.48 L 194.53,155.55 L 198.62,153.79 L 200.63,152.93 L 204.38,151.35 L 206.21,150.58 L 209.52,149.22 L 211.12,148.57 L 213.91,147.46 L 215.22,146.94 L 217.38,146.13 L 218.38,145.77 L 219.81,145.29 L 221.05,145.00 L 221.92,145.00 L 223.59,145.59 L 224.41,145.96 L 225.82,147.13 L 226.47,147.76 L 227.40,149.30 L 228.00,151.78 L 228.00,151.95 L 227.87,152.58 L 227.78,152.94 L 227.49,153.92 L 227.33,154.44 L 226.90,155.73 L 226.67,156.40 L 226.12,157.94 L 225.54,159.53 L 224.08,163.27 L 221.60,169.35 L 221.16,170.39 L 220.17,172.74 L 219.65,173.95 L 218.55,176.57 L 217.42,179.25 L 214.97,185.04 L 213.74,187.96 L 211.31,193.70 L 210.72,195.10 L 209.59,197.77 L 208.01,201.50 L 207.45,202.83 L 206.41,205.32 L 205.90,206.53 L 204.98,208.78 L 204.08,210.98 L 202.60,214.74 L 201.92,216.54 L 200.83,219.61 L 200.34,221.07 L 199.61,223.58 L 199.29,224.78 L 198.87,226.89 L 198.70,227.90 L 198.56,229.75 L 199.00,234.99 L 199.31,236.63 L 200.27,239.70 L 200.81,241.20 L 202.19,243.99 L 202.94,245.34 L 204.73,247.80 L 205.67,248.99 L 207.83,251.11 L 208.95,252.13 L 211.46,253.88 L 212.75,254.71 L 215.57,256.07 L 217.02,256.69 L 220.12,257.63 L 225.08,258.54 L 226.35,258.68 L 228.46,258.89 L 229.50,258.95 L 231.58,258.74 L 232.13,258.65 L 233.33,258.32 L 233.96,258.12 L 235.36,257.57 L 236.10,257.26 L 237.79,256.43 L 238.68,255.98 L 240.74,254.84 L 241.82,254.23 L 244.31,252.73 L 245.62,251.94 L 248.64,250.04 L 250.21,249.03 L 253.82,246.69 L 255.70,245.46 L 259.98,242.63 L 262.21,241.15 L 267.24,237.78 L 269.85,236.03 L 275.71,232.08 L 277.23,231.06 L 280.43,228.89 L 282.07,227.79 L 285.50,225.47 L 287.25,224.29 L 290.94,221.80 L 296.74,217.88 L 301.21,214.86 L 309.64,209.16 L 313.77,206.38 L 321.54,201.13 L 325.34,198.57 L 332.46,193.77 L 335.94,191.42 L 342.42,187.05 L 345.59,184.91 L 351.46,180.96 L 354.31,179.03 L 359.58,175.49 L 362.15,173.76 L 366.83,170.61 L 369.10,169.09 L 373.22,166.32 L 375.21,164.99 L 378.78,162.60 L 380.50,161.45 L 383.53,159.42 L 384.98,158.45 L 387.50,156.78 L 388.70,155.99 L 390.71,154.66 L 391.66,154.03 L 393.18,153.03 L 393.89,152.57 L 394.95,151.89 L 395.42,151.59 L 396.03,151.22 L 396.44,151.00 L 396.46,151.00 L 396.50,151.37 L 396.52,151.61 L 396.55,152.45 L 396.57,152.92 L 396.61,154.21 L 396.63,154.90 L 396.66,156.60 L 396.68,157.50 L 396.71,159.60 L 396.72,160.70 L 396.75,163.17 L 396.77,164.45 L 396.80,167.27 L 396.81,168.72 L 396.84,171.86 L 396.85,173.46 L 396.87,176.90 L 396.88,178.66 L 396.90,182.37 L 396.92,186.15 L 396.96,194.43 L 396.97,198.68 L 396.99,207.74 L 397.00,222.00 L 397.00,293.00 L 250.49,293.00 L 103.98,293.00 L 104.24,244.28 M 262.79,189.85 L 261.98,189.56 L 260.37,188.27 L 259.58,187.55 L 258.18,185.68 L 257.54,184.71 L 256.61,182.62 L 256.00,179.64 L 256.00,179.37 L 256.31,178.13 L 256.51,177.40 L 257.19,175.35 L 257.56,174.24 L 258.54,171.53 L 259.07,170.11 L 260.29,166.88 L 260.93,165.22 L 262.35,161.64 L 263.08,159.81 L 264.64,156.01 L 269.53,144.50 L 270.57,142.12 L 272.33,138.05 L 273.15,136.12 L 274.48,132.83 L 275.10,131.27 L 276.06,128.63 L 276.49,127.37 L 277.10,125.22 L 277.37,124.20 L 277.67,122.40 L 277.79,121.54 L 277.82,119.96 L 277.09,115.33 L 276.91,114.65 L 276.33,113.29 L 276.01,112.61 L 275.15,111.24 L 274.69,110.56 L 273.56,109.20 L 271.55,107.16 L 270.48,106.16 L 268.48,104.59 L 267.49,103.87 L 265.50,102.86 L 264.48,102.43 L 262.24,102.03 L 261.07,101.90 L 258.36,102.13 L 256.92,102.33 L 253.50,103.23 L 252.59,103.50 L 250.59,104.17 L 249.56,104.53 L 247.31,105.38 L 246.14,105.82 L 243.60,106.85 L 242.29,107.39 L 239.42,108.60 L 237.95,109.24 L 234.74,110.64 L 229.50,112.97 L 226.34,114.39 L 219.54,117.42 L 216.13,118.94 L 209.44,121.93 L 207.81,122.65 L 204.70,124.03 L 203.18,124.71 L 200.36,125.96 L 199.00,126.56 L 196.58,127.63 L 193.50,128.99 L 192.61,129.38 L 190.13,130.48 L 188.78,131.07 L 185.51,132.53 L 183.78,133.29 L 179.85,135.04 L 177.81,135.94 L 173.35,137.92 L 171.07,138.93 L 166.23,141.09 L 163.78,142.18 L 158.69,144.44 L 143.17,151.36 L 140.61,152.50 L 135.66,154.70 L 133.22,155.78 L 128.61,157.82 L 126.35,158.81 L 122.18,160.65 L 120.16,161.53 L 116.54,163.11 L 114.81,163.87 L 111.84,165.15 L 110.44,165.75 L 108.23,166.69 L 107.23,167.11 L 105.87,167.66 L 105.59,167.77 L 105.21,167.91 L 104.92,168.00 L 104.89,168.00 L 104.82,167.61 L 104.79,167.36 L 104.72,166.47 L 104.69,165.97 L 104.63,164.60 L 104.60,163.85 L 104.54,162.01 L 104.52,161.03 L 104.46,158.74 L 104.44,157.54 L 104.39,154.80 L 104.36,153.38 L 104.32,150.23 L 104.29,148.60 L 104.25,145.03 L 104.23,143.20 L 104.20,139.24 L 104.18,137.22 L 104.15,132.88 L 104.13,130.67 L 104.10,125.97 L 104.09,123.58 L 104.07,118.54 L 104.06,115.97 L 104.04,110.60 L 104.03,107.87 L 104.02,102.18 L 104.01,99.30 L 104.00,93.31 L 104.00,84.00 L 104.00,0.00 L 250.50,0.00 L 397.00,0.00 L 397.00,52.92 L 397.00,105.83 L 381.25,116.49 L 380.71,116.85 L 379.40,117.74 L 378.71,118.21 L 377.13,119.28 L 376.30,119.84 L 374.46,121.09 L 373.51,121.73 L 371.43,123.14 L 369.30,124.59 L 364.42,127.91 L 361.89,129.62 L 356.34,133.39 L 353.50,135.32 L 347.46,139.42 L 344.39,141.51 L 338.03,145.83 L 318.57,159.07 L 315.49,161.16 L 309.90,164.97 L 307.20,166.80 L 302.31,170.12 L 299.95,171.71 L 295.72,174.57 L 293.68,175.94 L 290.04,178.37 L 288.29,179.53 L 285.20,181.56 L 283.71,182.53 L 281.09,184.20 L 279.84,184.99 L 277.65,186.32 L 276.61,186.94 L 274.80,187.97 L 273.93,188.45 L 272.43,189.20 L 271.72,189.54 L 270.48,190.05 L 269.89,190.28 L 268.86,190.58 L 268.37,190.70 L 267.49,190.82 L 266.63,190.89 L 265.14,190.63 L 264.40,190.44 M 294.21,88.02 L 295.59,87.51 L 298.13,86.28 L 299.36,85.63 L 301.62,84.15 L 302.71,83.39 L 304.67,81.67 L 305.61,80.78 L 307.27,78.84 L 308.06,77.85 L 309.39,75.70 L 310.02,74.60 L 311.02,72.27 L 311.49,71.07 L 312.15,68.56 L 312.74,64.60 L 312.86,63.19 L 312.82,60.48 L 312.75,59.13 L 312.36,56.54 L 312.12,55.27 L 311.40,52.83 L 310.99,51.63 L 309.93,49.35 L 309.36,48.23 L 307.98,46.14 L 307.25,45.12 L 305.56,43.22 L 304.68,42.30 L 302.68,40.62 L 299.35,38.36 L 298.59,37.91 L 296.89,37.15 L 296.01,36.79 L 294.12,36.21 L 292.20,35.67 L 288.05,35.15 L 285.97,34.98 L 281.87,35.23 L 280.87,35.34 L 278.96,35.72 L 276.31,36.52 L 274.51,37.21 L 271.25,39.12 L 269.69,40.15 L 266.94,42.66 L 265.63,43.98 L 263.45,46.97 L 262.43,48.51 L 260.85,51.84 L 260.14,53.54 L 259.22,57.10 L 258.85,58.89 L 258.65,62.54 L 258.65,64.37 L 259.22,67.99 L 260.99,73.26 L 261.76,74.89 L 264.04,78.08 L 265.28,79.64 L 268.25,82.48 L 269.80,83.83 L 273.14,86.02 L 278.20,88.28 L 279.10,88.54 L 280.69,88.97 L 281.46,89.16 L 282.85,89.45 L 284.20,89.71 L 286.56,89.81 L 287.73,89.79 L 290.10,89.34 L 291.33,89.04 Z" fill="rgba(255,255,255,1)"/>
</g>
</svg>